<svg width="15" height="15" viewBox="0 0 15 15" fill="none" xmlns="http://www.w3.org/2000/svg">
<path d="M6.61467 2.28666L3.47676 0.73541C1.78384 -0.0933404 0.395508 0.749576 0.395508 2.60541V13.1171C0.395508 13.9246 1.06842 14.5833 1.89009 14.5833H7.14592C7.53551 14.5833 7.85426 14.2646 7.85426 13.875V4.24874C7.85426 3.50499 7.29467 2.61958 6.61467 2.28666ZM5.35384 8.73958H2.89592C2.60551 8.73958 2.36467 8.49874 2.36467 8.20833C2.36467 7.91791 2.60551 7.67708 2.89592 7.67708H5.35384C5.49474 7.67708 5.62986 7.73305 5.72949 7.83268C5.82912 7.9323 5.88509 8.06743 5.88509 8.20833C5.88509 8.34922 5.82912 8.48435 5.72949 8.58398C5.62986 8.68361 5.49474 8.73958 5.35384 8.73958ZM5.35384 5.90624H2.89592C2.60551 5.90624 2.36467 5.66541 2.36467 5.37499C2.36467 5.08458 2.60551 4.84374 2.89592 4.84374H5.35384C5.49474 4.84374 5.62986 4.89971 5.72949 4.99934C5.82912 5.09897 5.88509 5.2341 5.88509 5.37499C5.88509 5.51589 5.82912 5.65101 5.72949 5.75064C5.62986 5.85027 5.49474 5.90624 5.35384 5.90624ZM14.5834 11.7783V12.8125C14.5834 13.2821 14.3969 13.7326 14.0648 14.0647C13.7327 14.3968 13.2822 14.5833 12.8126 14.5833H9.60384C9.22134 14.5833 8.91676 14.2787 8.91676 13.8962V12.3662C9.67467 12.4583 10.4751 12.2387 11.0488 11.7783C11.5305 12.1679 12.1468 12.4017 12.8197 12.4017C13.4784 12.4017 14.0947 12.1679 14.5834 11.7783ZM14.5834 9.66041V9.66749C14.5581 10.1185 14.3614 10.5428 14.0335 10.8536C13.7057 11.1644 13.2714 11.3381 12.8197 11.3392C12.35 11.3392 11.8996 11.1526 11.5675 10.8205C11.2354 10.4884 11.0488 10.038 11.0488 9.56833C11.0488 10.6521 10.0501 11.5233 8.91676 11.3037V7.49999C8.91676 7.04666 9.33467 6.70666 9.78092 6.80583L11.0488 7.08916L11.3888 7.16708L12.8338 7.49291C13.1809 7.56374 13.4997 7.68416 13.7759 7.86124C13.7759 7.86833 13.783 7.86833 13.783 7.86833C13.8538 7.91791 13.9247 7.97458 13.9884 8.03833C14.3143 8.36416 14.5268 8.83874 14.5763 9.53291C14.5763 9.57541 14.5834 9.61791 14.5834 9.66041Z" fill="#9BC131"/>
</svg>
