<svg width="17" height="17" viewBox="0 0 17 17" fill="none" xmlns="http://www.w3.org/2000/svg">
<path d="M14.7973 9.20832V9.91666H14.181C13.6569 9.91666 13.2319 10.3417 13.2319 10.8729V11.0854C13.2319 11.3381 13.1315 11.5804 12.9528 11.7591C12.7742 11.9377 12.5318 12.0381 12.2792 12.0381C12.0265 12.0381 11.7842 11.9377 11.6055 11.7591C11.4268 11.5804 11.3265 11.3381 11.3265 11.0854V10.8729C11.3265 10.3417 10.8944 9.91666 10.3702 9.91666C9.84604 9.91666 9.42104 10.3417 9.42104 10.8729V11.0854C9.42104 11.339 9.32029 11.5822 9.14096 11.7616C8.96163 11.9409 8.7184 12.0417 8.46479 12.0417C8.21118 12.0417 7.96795 11.9409 7.78862 11.7616C7.60929 11.5822 7.50854 11.339 7.50854 11.0854V10.8729C7.50854 10.3417 7.08354 9.91666 6.55938 9.91666C6.03521 9.91666 5.60313 10.3417 5.60313 10.8729V11.0854C5.60313 11.3381 5.50275 11.5804 5.32408 11.7591C5.14542 11.9377 4.90309 12.0381 4.65042 12.0381C4.39774 12.0381 4.15542 11.9377 3.97675 11.7591C3.79808 11.5804 3.69771 11.3381 3.69771 11.0854V10.8587C3.69771 10.3346 3.27979 9.90957 2.76271 9.90249H2.20312V9.20832C2.20312 8.23082 2.93979 7.40207 3.93854 7.16124C4.13688 7.11166 4.34229 7.08332 4.56188 7.08332H12.4385C12.6581 7.08332 12.8635 7.11166 13.0619 7.16124C14.0606 7.40207 14.7973 8.23082 14.7973 9.20832ZM13.0619 5.07874V6.07749C12.8565 6.03499 12.651 6.02082 12.4385 6.02082H4.56188C4.34938 6.02082 4.14396 6.04207 3.93854 6.08457V5.07874C3.93854 4.22874 4.70354 3.54166 5.65271 3.54166H11.3477C12.2969 3.54166 13.0619 4.22874 13.0619 5.07874Z" fill="#08A5E0"/>
<path d="M6.19775 2.51316V3.54732H5.65234C5.46817 3.54732 5.29817 3.56857 5.13525 3.61107V2.51316C5.13525 2.26524 5.37609 2.05274 5.6665 2.05274C5.95692 2.05274 6.19775 2.26524 6.19775 2.51316ZM11.8644 2.35732V3.61107C11.7015 3.56149 11.5315 3.54024 11.3473 3.54024H10.8019V2.35732C10.8019 2.06691 11.0428 1.82607 11.3332 1.82607C11.6236 1.82607 11.8644 2.06691 11.8644 2.35732ZM9.03109 1.99749V3.54166H7.96859V1.99749C7.96859 1.67874 8.20942 1.41666 8.49984 1.41666C8.79025 1.41666 9.03109 1.67874 9.03109 1.99749ZM15.5832 15.0521C15.5832 15.3425 15.3423 15.5833 15.0519 15.5833H1.94775C1.65734 15.5833 1.4165 15.3425 1.4165 15.0521C1.4165 14.7617 1.65734 14.5208 1.94775 14.5208H2.20275V10.965H2.63484V11.0146C2.63484 11.9637 3.25817 12.8421 4.18609 13.0475C4.90859 13.2175 5.59567 12.9837 6.06317 12.5233C6.33234 12.2542 6.7715 12.2471 7.04067 12.5162C7.409 12.8775 7.91192 13.1042 8.46442 13.1042C9.01692 13.1042 9.51984 12.8846 9.88817 12.5162C10.1573 12.2542 10.5894 12.2542 10.8657 12.5233C11.3261 12.9837 12.0132 13.2175 12.7428 13.0475C13.6707 12.8421 14.294 11.9637 14.294 11.0146V10.9792H14.7969V14.5208H15.0519C15.3423 14.5208 15.5832 14.7617 15.5832 15.0521Z" fill="#08A5E0"/>
</svg>
