<svg width="20" height="20" viewBox="0 0 20 20" fill="none" xmlns="http://www.w3.org/2000/svg">
<g clip-path="url(#clip0_28_447)">
<path d="M11.0001 12C11.0001 12.8833 10.6167 13.6833 10.0001 14.2333C9.46675 14.7167 8.76675 15 8.00008 15C7.27315 15.0013 6.57052 14.7384 6.02294 14.2603C5.47535 13.7822 5.1201 13.1214 5.0233 12.401C4.92649 11.6805 5.09471 10.9494 5.49667 10.3437C5.89863 9.73805 6.50694 9.29902 7.20841 9.10834C7.43021 9.66801 7.81482 10.1483 8.31251 10.487C8.81019 10.8257 9.39806 11.0073 10.0001 11.0083C10.2751 11.0083 10.5417 10.975 10.7917 10.9C10.9251 11.2333 11.0001 11.6083 11.0001 12Z" stroke="#08A5DE" stroke-width="1.5" stroke-linecap="round" stroke-linejoin="round"/>
<path d="M13 8C13 8.39167 12.925 8.76667 12.7917 9.10833C12.5699 9.66801 12.1853 10.1483 11.6876 10.487C11.1899 10.8257 10.6021 11.0073 10 11.0083C9.72504 11.0083 9.45837 10.975 9.20837 10.9C8.572 10.7278 8.01042 10.3501 7.61102 9.82556C7.21162 9.30106 6.99681 8.65925 7.00004 8C7.00004 6.34167 8.3417 5 10 5C11.6584 5 13 6.34167 13 8Z" stroke="#08A5DE" stroke-width="1.5" stroke-linecap="round" stroke-linejoin="round"/>
<path d="M15 12C15.0002 12.5792 14.8326 13.1461 14.5175 13.6321C14.2024 14.1181 13.7533 14.5024 13.2245 14.7386C12.6956 14.9749 12.1097 15.0529 11.5375 14.9632C10.9652 14.8735 10.4312 14.62 10 14.2333C10.3163 13.954 10.5693 13.6101 10.7417 13.2249C10.9142 12.8397 11.0023 12.4221 11 12C11 11.6083 10.925 11.2333 10.7917 10.8917C11.7083 10.6417 12.45 9.97501 12.7917 9.10001C13.4257 9.27634 13.9847 9.65518 14.3834 10.1788C14.7821 10.7023 14.9986 11.3419 15 12Z" stroke="#08A5DE" stroke-width="1.5" stroke-linecap="round" stroke-linejoin="round"/>
<path d="M7.50008 18.3333H12.5001C16.6667 18.3333 18.3334 16.6667 18.3334 12.5V7.5C18.3334 3.33334 16.6667 1.66667 12.5001 1.66667H7.50008C3.33341 1.66667 1.66675 3.33334 1.66675 7.5V12.5C1.66675 16.6667 3.33341 18.3333 7.50008 18.3333Z" stroke="#08A5DE" stroke-width="1.5" stroke-linecap="round" stroke-linejoin="round"/>
</g>
<defs>
<clipPath id="clip0_28_447">
<rect width="20" height="20" fill="white"/>
</clipPath>
</defs>
</svg>
