<svg width="20" height="20" viewBox="0 0 20 20" fill="none" xmlns="http://www.w3.org/2000/svg">
<path d="M9.9999 11.1916C10.3413 11.1916 10.6794 11.1244 10.9949 10.9937C11.3103 10.8631 11.5969 10.6715 11.8384 10.4301C12.0798 10.1887 12.2713 9.90206 12.402 9.58662C12.5327 9.27117 12.5999 8.93308 12.5999 8.59164C12.5999 8.2502 12.5327 7.91211 12.402 7.59666C12.2713 7.28121 12.0798 6.99459 11.8384 6.75316C11.5969 6.51173 11.3103 6.32021 10.9949 6.18955C10.6794 6.05889 10.3413 5.99164 9.9999 5.99164C9.31034 5.99164 8.64902 6.26557 8.16142 6.75316C7.67383 7.24075 7.3999 7.90208 7.3999 8.59164C7.3999 9.2812 7.67383 9.94252 8.16142 10.4301C8.64902 10.9177 9.31034 11.1916 9.9999 11.1916Z" stroke="#F29202" stroke-width="1.5"/>
<path d="M3.01675 7.07502C4.65842 -0.141644 15.3501 -0.133311 16.9834 7.08336C17.9418 11.3167 15.3084 14.9 13.0001 17.1167C12.1935 17.8946 11.1165 18.3293 9.99592 18.3293C8.87529 18.3293 7.79835 17.8946 6.99175 17.1167C4.69175 14.9 2.05842 11.3084 3.01675 7.07502Z" stroke="#F29202" stroke-width="1.5"/>
</svg>
