<svg width="15" height="15" viewBox="0 0 15 15" fill="none" xmlns="http://www.w3.org/2000/svg">
<g clip-path="url(#clip0_105_763)">
<path d="M10.325 3.53125L8.38745 2.03125C8.13745 1.78125 7.57495 1.65625 7.19995 1.65625L4.82495 1.65625C4.07495 1.65625 3.26245 2.21875 3.07495 2.96875L1.57495 7.53125C1.26245 8.40625 1.82495 9.15625 2.76245 9.15625L5.26245 9.15625C5.63745 9.15625 5.94995 9.46875 5.88745 9.90625L5.57495 11.9062C5.44995 12.4687 5.82495 13.0937 6.38745 13.2812C6.88745 13.4687 7.51245 13.2187 7.76245 12.8437L10.325 9.03125" stroke="#09A5E0" stroke-width="1.5" stroke-miterlimit="10"/>
<path d="M13.5125 3.53125L13.5125 9.65625C13.5125 10.5312 13.1375 10.8438 12.2625 10.8438L11.6375 10.8438C10.7625 10.8438 10.3875 10.5313 10.3875 9.65625L10.3875 3.53125C10.3875 2.65625 10.7625 2.34375 11.6375 2.34375L12.2625 2.34375C13.1375 2.34375 13.5125 2.65625 13.5125 3.53125Z" stroke="#09A5E0" stroke-width="1.5" stroke-linecap="round" stroke-linejoin="round"/>
</g>
<defs>
<clipPath id="clip0_105_763">
<rect width="15" height="15" fill="white" transform="translate(15 15) rotate(180)"/>
</clipPath>
</defs>
</svg>
