<svg width="16" height="16" viewBox="0 0 16 16" fill="none" xmlns="http://www.w3.org/2000/svg">
<path d="M14.1668 6.1C12.6268 3.68 10.3735 2.28667 8.00016 2.28667C6.8135 2.28667 5.66016 2.63333 4.60683 3.28C3.5535 3.93333 2.60683 4.88667 1.8335 6.1C1.16683 7.14667 1.16683 8.84667 1.8335 9.89333C3.3735 12.32 5.62683 13.7067 8.00016 13.7067C9.18683 13.7067 10.3402 13.36 11.3935 12.7133C12.4468 12.06 13.3935 11.1067 14.1668 9.89333C14.8335 8.85333 14.8335 7.14667 14.1668 6.1ZM8.00016 10.6933C6.50683 10.6933 5.30683 9.48667 5.30683 8C5.30683 6.51333 6.50683 5.30667 8.00016 5.30667C9.4935 5.30667 10.6935 6.51333 10.6935 8C10.6935 9.48667 9.4935 10.6933 8.00016 10.6933Z" fill="#08A5DE"/>
<path d="M7.99855 6.09334C7.49375 6.09334 7.00963 6.29387 6.65269 6.65081C6.29574 7.00776 6.09521 7.49188 6.09521 7.99667C6.09521 8.50147 6.29574 8.98559 6.65269 9.34253C7.00963 9.69948 7.49375 9.9 7.99855 9.9C9.04522 9.9 9.90522 9.04667 9.90522 8C9.90522 6.95334 9.04522 6.09334 7.99855 6.09334Z" fill="#08A5DE"/>
</svg>
