<svg width="20" height="20" viewBox="0 0 20 20" fill="none" xmlns="http://www.w3.org/2000/svg">
<g clip-path="url(#clip0_1_1280)">
<path d="M7.97477 10.3833L5.43311 12.925M5.45811 10.4083L7.99977 12.95" stroke="#08A5E0" stroke-width="1.5" stroke-miterlimit="10" stroke-linecap="round" stroke-linejoin="round"/>
<path d="M11.2749 11.6667H11.2832M14.5582 11.6667H14.5666M12.9166 13.3167V13.3M12.9166 10.0333V10.0167" stroke="#08A5E0" stroke-width="2" stroke-miterlimit="10" stroke-linecap="round" stroke-linejoin="round"/>
<path d="M10.8415 1.66666L10.8332 2.50832C10.831 2.72789 10.7422 2.93772 10.5862 3.0922C10.4301 3.24668 10.2194 3.33333 9.99984 3.33332H9.97484C9.5165 3.33332 9.14984 3.70832 9.14984 4.16666C9.14984 4.62499 9.52484 4.99999 9.98317 4.99999H10.8165M7.49984 18.3333H12.4998C16.6665 18.3333 18.3332 16.6667 18.3332 12.5V10.8333C18.3332 6.66666 16.6665 4.99999 12.4998 4.99999H7.49984C3.33317 4.99999 1.6665 6.66666 1.6665 10.8333V12.5C1.6665 16.6667 3.33317 18.3333 7.49984 18.3333Z" stroke="#08A5E0" stroke-width="1.5" stroke-linecap="round" stroke-linejoin="round"/>
</g>
<defs>
<clipPath id="clip0_1_1280">
<rect width="20" height="20" fill="white"/>
</clipPath>
</defs>
</svg>
