<svg width="19" height="19" viewBox="0 0 19 19" fill="none" xmlns="http://www.w3.org/2000/svg">
<path fill-rule="evenodd" clip-rule="evenodd" d="M4.09464 9.5C4.09464 8.88295 4.19706 8.29128 4.38009 7.73642L1.17829 5.2915C0.554259 6.55842 0.202759 7.98609 0.202759 9.5C0.202759 11.0127 0.553962 12.4394 1.17695 13.7055L4.37697 11.2559C4.19573 10.7035 4.09464 10.1141 4.09464 9.5Z" fill="#FBBC05"/>
<path fill-rule="evenodd" clip-rule="evenodd" d="M9.71628 3.88639C11.0568 3.88639 12.2676 4.36139 13.219 5.13861L15.9864 2.375C14.3 0.906805 12.1379 0 9.71628 0C5.95665 0 2.72546 2.14997 1.1783 5.2915L4.37995 7.73641C5.11768 5.49709 7.2206 3.88639 9.71628 3.88639Z" fill="#EA4335"/>
<path fill-rule="evenodd" clip-rule="evenodd" d="M9.71628 15.1136C7.22074 15.1136 5.11783 13.5029 4.3801 11.2636L1.1783 13.708C2.72546 16.85 5.95665 19 9.71628 19C12.0367 19 14.2521 18.176 15.9147 16.6323L12.8756 14.2828C12.0181 14.823 10.9382 15.1136 9.71628 15.1136Z" fill="#34A853"/>
<path fill-rule="evenodd" clip-rule="evenodd" d="M18.7972 9.5C18.7972 8.93861 18.7107 8.33402 18.581 7.77278H9.71628V11.4432H14.819C14.5638 12.6947 13.8694 13.6567 12.8756 14.2828L15.9147 16.6323C17.6612 15.0113 18.7972 12.5966 18.7972 9.5Z" fill="#4285F4"/>
</svg>
