<svg width="15" height="15" viewBox="0 0 15 15" fill="none" xmlns="http://www.w3.org/2000/svg">
<g clip-path="url(#clip0_105_757)">
<path d="M4.67505 11.4688L6.61255 12.9688C6.86255 13.2188 7.42505 13.3438 7.80005 13.3438H10.175C10.925 13.3438 11.7375 12.7813 11.925 12.0313L13.425 7.46875C13.7375 6.59375 13.175 5.84375 12.2375 5.84375H9.73755C9.36255 5.84375 9.05005 5.53125 9.11255 5.09375L9.42505 3.09375C9.55005 2.53125 9.17505 1.90625 8.61255 1.71875C8.11255 1.53125 7.48755 1.78125 7.23755 2.15625L4.67505 5.96875" stroke="#08A5E0" stroke-width="1.5" stroke-miterlimit="10"/>
<path d="M1.48755 11.4688V5.34375C1.48755 4.46875 1.86255 4.15625 2.73755 4.15625H3.36255C4.23755 4.15625 4.61255 4.46875 4.61255 5.34375V11.4688C4.61255 12.3438 4.23755 12.6563 3.36255 12.6563H2.73755C1.86255 12.6563 1.48755 12.3438 1.48755 11.4688Z" stroke="#08A5E0" stroke-width="1.5" stroke-linecap="round" stroke-linejoin="round"/>
</g>
<defs>
<clipPath id="clip0_105_757">
<rect width="15" height="15" fill="white"/>
</clipPath>
</defs>
</svg>
