<svg width="17" height="15" viewBox="0 0 17 15" fill="none" xmlns="http://www.w3.org/2000/svg">
<g clip-path="url(#clip0_194_757)">
<path d="M6.34407 13.75H10.4066C13.792 13.75 15.1462 12.5 15.1462 9.375V5.625C15.1462 2.5 13.792 1.25 10.4066 1.25H6.34407C2.95866 1.25 1.60449 2.5 1.60449 5.625V9.375C1.60449 12.5 2.95866 13.75 6.34407 13.75Z" stroke="#08A5E0" stroke-width="1.5" stroke-linecap="round" stroke-linejoin="round"/>
<path d="M8.54882 8.5V8.29C8.54882 7.61 9.00382 7.25 9.45882 6.96C9.90299 6.68 10.3472 6.32 10.3472 5.66C10.3472 4.74 9.54549 4 8.54882 4C7.55215 4 6.75049 4.74 6.75049 5.66M8.5434 10.89H8.55424" stroke="#08A5E0" stroke-width="1.5" stroke-linecap="round" stroke-linejoin="round"/>
</g>
<defs>
<clipPath id="clip0_194_757">
<rect width="16.25" height="15" fill="white" transform="translate(0.250488)"/>
</clipPath>
</defs>
</svg>
