<svg width="20" height="20" viewBox="0 0 20 20" fill="none" xmlns="http://www.w3.org/2000/svg">
<g clip-path="url(#clip0_1_1553)">
<path d="M14.9834 8.99167V12.325C14.9834 12.5417 14.9751 12.75 14.9501 12.95C14.7584 15.2 13.4334 16.3167 10.9917 16.3167H10.6584C10.4501 16.3167 10.2501 16.4167 10.1251 16.5833L9.12508 17.9167C8.68341 18.5083 7.96675 18.5083 7.52508 17.9167L6.52508 16.5833C6.45838 16.5057 6.37685 16.4421 6.28528 16.3963C6.1937 16.3505 6.09391 16.3234 5.99175 16.3167H5.65841C3.00008 16.3167 1.66675 15.6583 1.66675 12.325V8.99167C1.66675 6.55 2.79175 5.225 5.03341 5.03333C5.23341 5.00833 5.44175 5 5.65841 5H10.9917C13.6501 5 14.9834 6.33333 14.9834 8.99167Z" stroke="black" stroke-opacity="0.5" stroke-width="1.5" stroke-miterlimit="10" stroke-linecap="round" stroke-linejoin="round"/>
<path d="M18.3168 5.65832V8.99166C18.3168 11.4417 17.1918 12.7583 14.9501 12.95C14.9751 12.75 14.9834 12.5417 14.9834 12.325V8.99166C14.9834 6.33332 13.6501 4.99999 10.9918 4.99999H5.65845C5.44178 4.99999 5.23345 5.00832 5.03345 5.03332C5.22511 2.79166 6.55011 1.66666 8.99178 1.66666H14.3251C16.9834 1.66666 18.3168 2.99999 18.3168 5.65832Z" stroke="black" stroke-opacity="0.5" stroke-width="1.5" stroke-miterlimit="10" stroke-linecap="round" stroke-linejoin="round"/>
<path d="M11.2459 11.0417H11.2543M8.32926 11.0417H8.3376M5.4126 11.0417H5.42093" stroke="black" stroke-opacity="0.5" stroke-width="2" stroke-linecap="round" stroke-linejoin="round"/>
</g>
<defs>
<clipPath id="clip0_1_1553">
<rect width="20" height="20" fill="white"/>
</clipPath>
</defs>
</svg>
