<svg width="20" height="20" viewBox="0 0 20 20" fill="none" xmlns="http://www.w3.org/2000/svg">
<path d="M18.3334 12.5C18.3334 15.725 15.7251 18.3333 12.5001 18.3333L13.3751 16.875M1.66675 7.5C1.66675 4.275 4.27508 1.66666 7.50008 1.66666L6.62508 3.125M18.3334 4.29166V7.375C18.3334 9.25 17.5834 10 15.7084 10H13.4584C11.5834 10 10.8334 9.25 10.8334 7.375V4.29166C10.8334 2.41666 11.5834 1.66666 13.4584 1.66666H15.7084C17.5834 1.66666 18.3334 2.41666 18.3334 4.29166ZM9.16675 12.625V15.7083C9.16675 17.5833 8.41675 18.3333 6.54175 18.3333H4.29175C2.41675 18.3333 1.66675 17.5833 1.66675 15.7083V12.625C1.66675 10.75 2.41675 10 4.29175 10H6.54175C8.41675 10 9.16675 10.75 9.16675 12.625Z" stroke="#08A5DE" stroke-width="1.5" stroke-linecap="round" stroke-linejoin="round"/>
</svg>
