<svg width="20" height="20" viewBox="0 0 20 20" fill="none" xmlns="http://www.w3.org/2000/svg">
<path d="M10.1333 9.05835C10.0499 9.05001 9.94994 9.05001 9.85827 9.05835C8.90177 9.02587 7.99547 8.62238 7.33129 7.93331C6.66712 7.24425 6.29722 6.32372 6.29994 5.36668C6.29994 3.32501 7.94994 1.66668 9.99994 1.66668C10.4853 1.65792 10.9676 1.74485 11.4193 1.92249C11.8711 2.10014 12.2834 2.36502 12.6328 2.70202C12.9822 3.03902 13.2618 3.44154 13.4556 3.88659C13.6494 4.33163 13.7537 4.8105 13.7624 5.29584C13.7712 5.78119 13.6843 6.2635 13.5066 6.71525C13.329 7.167 13.0641 7.57934 12.7271 7.92872C12.3901 8.2781 11.9876 8.55768 11.5425 8.7515C11.0975 8.94533 10.6186 9.04959 10.1333 9.05835ZM5.9666 12.1333C3.94993 13.4833 3.94993 15.6833 5.9666 17.025C8.25827 18.5583 12.0166 18.5583 14.3083 17.025C16.3249 15.675 16.3249 13.475 14.3083 12.1333C12.0249 10.6083 8.2666 10.6083 5.9666 12.1333Z" stroke="black" stroke-opacity="0.5" stroke-width="1.5" stroke-linecap="round" stroke-linejoin="round"/>
</svg>
