<svg width="13" height="15" viewBox="0 0 13 15" fill="none" xmlns="http://www.w3.org/2000/svg">
    <path
        d="M6.50003 7.49999C7.43934 7.49999 8.34017 7.12685 9.00437 6.46266C9.66856 5.79847 10.0417 4.89763 10.0417 3.95832C10.0417 3.01901 9.66856 2.11818 9.00437 1.45399C8.34017 0.789795 7.43934 0.416656 6.50003 0.416656C5.56072 0.416656 4.65988 0.789795 3.99569 1.45399C3.3315 2.11818 2.95836 3.01901 2.95836 3.95832C2.95836 4.89763 3.3315 5.79847 3.99569 6.46266C4.65988 7.12685 5.56072 7.49999 6.50003 7.49999ZM6.50003 9.27082C2.95128 9.27082 0.0612793 11.6508 0.0612793 14.5833C0.0612793 14.7817 0.217113 14.9375 0.415446 14.9375H12.5846C12.7829 14.9375 12.9388 14.7817 12.9388 14.5833C12.9388 11.6508 10.0488 9.27082 6.50003 9.27082Z"
        fill="#F29202" />
</svg>
