<svg width="17" height="17" viewBox="0 0 17 17" fill="none" xmlns="http://www.w3.org/2000/svg">
<path d="M8.50003 8.49999C9.43934 8.49999 10.3402 8.12685 11.0044 7.46266C11.6686 6.79847 12.0417 5.89763 12.0417 4.95832C12.0417 4.01901 11.6686 3.11818 11.0044 2.45399C10.3402 1.7898 9.43934 1.41666 8.50003 1.41666C7.56072 1.41666 6.65988 1.7898 5.99569 2.45399C5.3315 3.11818 4.95836 4.01901 4.95836 4.95832C4.95836 5.89763 5.3315 6.79847 5.99569 7.46266C6.65988 8.12685 7.56072 8.49999 8.50003 8.49999ZM8.50003 10.2708C4.95128 10.2708 2.06128 12.6508 2.06128 15.5833C2.06128 15.7817 2.21711 15.9375 2.41545 15.9375H14.5846C14.7829 15.9375 14.9388 15.7817 14.9388 15.5833C14.9388 12.6508 12.0488 10.2708 8.50003 10.2708Z" fill="#F29202"/>
</svg>
