<svg width="20" height="20" viewBox="0 0 20 20" fill="none" xmlns="http://www.w3.org/2000/svg">
<g clip-path="url(#clip0_28_461)">
<path d="M7.50008 18.3333H12.5001C16.6667 18.3333 18.3334 16.6667 18.3334 12.5V7.5C18.3334 3.33333 16.6667 1.66667 12.5001 1.66667H7.50008C3.33341 1.66667 1.66675 3.33333 1.66675 7.5V12.5C1.66675 16.6667 3.33341 18.3333 7.50008 18.3333Z" stroke="#08A5DE" stroke-width="1.5" stroke-linecap="round" stroke-linejoin="round"/>
<path d="M10 6.75V14.7167M15.3167 12.725V6.31667C15.3167 5.675 14.8 5.20833 14.1667 5.25833H14.1333C13.0167 5.35 11.325 5.925 10.375 6.51667L10.2834 6.575C10.1334 6.66667 9.87502 6.66667 9.71668 6.575L9.58335 6.49167C8.64168 5.9 6.95002 5.34167 5.83335 5.25C5.20002 5.2 4.68335 5.675 4.68335 6.30833V12.725C4.68335 13.2333 5.10002 13.7167 5.60835 13.775L5.75835 13.8C6.90835 13.95 8.69168 14.5417 9.70835 15.1L9.73335 15.1083C9.87502 15.1917 10.1083 15.1917 10.2417 15.1083C11.2584 14.5417 13.05 13.9583 14.2083 13.8L14.3834 13.775C14.9 13.7167 15.3167 13.2417 15.3167 12.725Z" stroke="#08A5DE" stroke-width="1.5" stroke-linecap="round" stroke-linejoin="round"/>
</g>
<defs>
<clipPath id="clip0_28_461">
<rect width="20" height="20" fill="white"/>
</clipPath>
</defs>
</svg>
