<svg width="20" height="20" viewBox="0 0 20 20" fill="none" xmlns="http://www.w3.org/2000/svg">
<path d="M17.1585 18.3334C17.1585 15.1084 13.9501 12.5 10.0001 12.5C6.05013 12.5 2.8418 15.1084 2.8418 18.3334M10.0001 10C11.1052 10 12.165 9.56103 12.9464 8.77963C13.7278 7.99823 14.1668 6.93842 14.1668 5.83335C14.1668 4.72828 13.7278 3.66848 12.9464 2.88708C12.165 2.10567 11.1052 1.66669 10.0001 1.66669C8.89506 1.66669 7.83525 2.10567 7.05385 2.88708C6.27245 3.66848 5.83346 4.72828 5.83346 5.83335C5.83346 6.93842 6.27245 7.99823 7.05385 8.77963C7.83525 9.56103 8.89506 10 10.0001 10Z" stroke="#08A5E0" stroke-width="1.5" stroke-linecap="round" stroke-linejoin="round"/>
</svg>
