<svg width="42" height="42" viewBox="0 0 42 42" fill="none" xmlns="http://www.w3.org/2000/svg">
    <circle cx="21" cy="21" r="21" fill="#C4C4C4" />
    <path
        d="M28.7401 21.1802C28.6468 21.0876 28.5363 21.0143 28.4147 20.9645C28.2931 20.9146 28.1629 20.8892 28.0315 20.8897C27.9001 20.8901 27.7701 20.9165 27.6489 20.9672C27.5277 21.0179 27.4176 21.092 27.3251 21.1852C27.2325 21.2784 27.1592 21.389 27.1093 21.5106C27.0595 21.6322 27.034 21.7624 27.0345 21.8937C27.035 22.0251 27.0613 22.1552 27.112 22.2764C27.1627 22.3976 27.2368 22.5076 27.3301 22.6002C28.1762 23.4374 28.8479 24.4342 29.3062 25.5327C29.7645 26.6313 30.0004 27.8099 30.0001 29.0002C30.0001 30.2202 26.4901 32.0002 21.0001 32.0002C15.5101 32.0002 12.0001 30.2202 12.0001 29.0002C11.9985 27.8177 12.2299 26.6465 12.6812 25.5535C13.1325 24.4605 13.7947 23.4672 14.6301 22.6302C14.8163 22.4428 14.9209 22.1894 14.9209 21.9252C14.9209 21.661 14.8163 21.4076 14.6301 21.2202C14.4427 21.034 14.1892 20.9294 13.9251 20.9294C13.6609 20.9294 13.4074 21.034 13.2201 21.2202C12.1952 22.2394 11.3828 23.4519 10.8301 24.7874C10.2773 26.1229 9.99519 27.5548 10.0001 29.0002C10.0001 32.2502 15.6701 34.0002 21.0001 34.0002C26.3301 34.0002 32.0001 32.2502 32.0001 29.0002C32.0039 27.5455 31.7176 26.1046 31.1578 24.7618C30.598 23.4191 29.7761 22.2015 28.7401 21.1802Z"
        fill="#7A7A7A" />
    <path
        d="M21 22C22.3845 22 23.7378 21.5895 24.889 20.8203C26.0401 20.0511 26.9373 18.9579 27.4672 17.6788C27.997 16.3997 28.1356 14.9922 27.8655 13.6344C27.5954 12.2765 26.9287 11.0292 25.9497 10.0503C24.9708 9.07129 23.7235 8.4046 22.3656 8.13451C21.0078 7.86441 19.6003 8.00303 18.3212 8.53285C17.0421 9.06266 15.9489 9.95987 15.1797 11.111C14.4105 12.2622 14 13.6155 14 15C14 16.8565 14.7375 18.637 16.0503 19.9497C17.363 21.2625 19.1435 22 21 22ZM21 10C21.9889 10 22.9556 10.2932 23.7779 10.8427C24.6001 11.3921 25.241 12.173 25.6194 13.0866C25.9978 14.0002 26.0969 15.0055 25.9039 15.9755C25.711 16.9454 25.2348 17.8363 24.5355 18.5355C23.8363 19.2348 22.9454 19.711 21.9755 19.9039C21.0055 20.0969 20.0002 19.9978 19.0866 19.6194C18.173 19.241 17.3921 18.6001 16.8427 17.7779C16.2932 16.9556 16 15.9889 16 15C16 13.6739 16.5268 12.4022 17.4645 11.4645C18.4021 10.5268 19.6739 10 21 10Z"
        fill="#7A7A7A" />
</svg>
