<svg width="22" height="22" viewBox="0 0 22 22" fill="none" xmlns="http://www.w3.org/2000/svg">
    <path
        d="M18.6514 2.00913L13.5183 0.38818C12.7036 0.130926 11.8543 0 11 0C10.1457 0 9.29638 0.130926 8.48173 0.38818L3.34864 2.00913C2.27605 2.34786 1.54688 3.3428 1.54688 4.46759V13.3789C1.54688 15.0172 2.32547 16.5581 3.64444 17.53L8.67316 21.2353C9.34729 21.732 10.1627 22 11 22C11.8373 22 12.6527 21.732 13.3268 21.2353L18.3556 17.53C19.6745 16.5581 20.4531 15.0172 20.4531 13.3789V4.46759C20.4531 3.3428 19.7239 2.34786 18.6514 2.00913ZM14.9499 9.78467L10.6962 14.0384C10.1927 14.5418 9.37655 14.5418 8.87318 14.0384L7.05014 12.2154C6.54672 11.7119 6.54672 10.8958 7.05014 10.3924C7.55356 9.88896 8.36975 9.88896 8.87313 10.3924L9.78463 11.3039L13.1268 7.96168C13.6302 7.45826 14.4464 7.45826 14.9498 7.96168C15.4533 8.46506 15.4533 9.28125 14.9499 9.78467Z"
        fill="#A2C73B" />
</svg>
